<mxfile host="Electron" modified="2023-11-26T09:32:10.699Z" agent="Mozilla/5.0 (Macintosh; Intel Mac OS X 10_15_7) AppleWebKit/537.36 (KHTML, like Gecko) draw.io/22.0.3 Chrome/114.0.5735.289 Electron/25.8.4 Safari/537.36" etag="uDnN-naPtByEOBl5k2TY" version="22.0.3" type="device">
  <diagram name="Page-1" id="q_znaS9jOddVUAfg9CCP">
    <mxGraphModel dx="2089" dy="920" grid="1" gridSize="10" guides="1" tooltips="1" connect="1" arrows="1" fold="1" page="1" pageScale="1" pageWidth="827" pageHeight="1169" math="0" shadow="0">
      <root>
        <mxCell id="0" />
        <mxCell id="1" parent="0" />
        <mxCell id="WZCXuej5-DD6I5j7KRN8-1" value="Shoonya" style="swimlane;fontStyle=0;childLayout=stackLayout;horizontal=1;startSize=30;horizontalStack=0;resizeParent=1;resizeParentMax=0;resizeLast=0;collapsible=1;marginBottom=0;whiteSpace=wrap;html=1;" vertex="1" parent="1">
          <mxGeometry x="319" y="210" width="140" height="120" as="geometry" />
        </mxCell>
        <mxCell id="WZCXuej5-DD6I5j7KRN8-2" value="Login" style="text;strokeColor=none;fillColor=none;align=left;verticalAlign=middle;spacingLeft=4;spacingRight=4;overflow=hidden;points=[[0,0.5],[1,0.5]];portConstraint=eastwest;rotatable=0;whiteSpace=wrap;html=1;" vertex="1" parent="WZCXuej5-DD6I5j7KRN8-1">
          <mxGeometry y="30" width="140" height="30" as="geometry" />
        </mxCell>
        <mxCell id="WZCXuej5-DD6I5j7KRN8-3" value="Prices (Daily &amp;amp; Hist)" style="text;strokeColor=none;fillColor=none;align=left;verticalAlign=middle;spacingLeft=4;spacingRight=4;overflow=hidden;points=[[0,0.5],[1,0.5]];portConstraint=eastwest;rotatable=0;whiteSpace=wrap;html=1;" vertex="1" parent="WZCXuej5-DD6I5j7KRN8-1">
          <mxGeometry y="60" width="140" height="30" as="geometry" />
        </mxCell>
        <mxCell id="WZCXuej5-DD6I5j7KRN8-4" value="Order Management" style="text;strokeColor=none;fillColor=none;align=left;verticalAlign=middle;spacingLeft=4;spacingRight=4;overflow=hidden;points=[[0,0.5],[1,0.5]];portConstraint=eastwest;rotatable=0;whiteSpace=wrap;html=1;" vertex="1" parent="WZCXuej5-DD6I5j7KRN8-1">
          <mxGeometry y="90" width="140" height="30" as="geometry" />
        </mxCell>
        <mxCell id="WZCXuej5-DD6I5j7KRN8-8" value="ScripData" style="swimlane;fontStyle=0;childLayout=stackLayout;horizontal=1;startSize=30;horizontalStack=0;resizeParent=1;resizeParentMax=0;resizeLast=0;collapsible=1;marginBottom=0;whiteSpace=wrap;html=1;" vertex="1" parent="1">
          <mxGeometry x="320" y="470" width="140" height="120" as="geometry" />
        </mxCell>
        <mxCell id="WZCXuej5-DD6I5j7KRN8-9" value="Save Scrip Data" style="text;strokeColor=none;fillColor=none;align=left;verticalAlign=middle;spacingLeft=4;spacingRight=4;overflow=hidden;points=[[0,0.5],[1,0.5]];portConstraint=eastwest;rotatable=0;whiteSpace=wrap;html=1;" vertex="1" parent="WZCXuej5-DD6I5j7KRN8-8">
          <mxGeometry y="30" width="140" height="30" as="geometry" />
        </mxCell>
        <mxCell id="WZCXuej5-DD6I5j7KRN8-10" value="Get Tick Data" style="text;strokeColor=none;fillColor=none;align=left;verticalAlign=middle;spacingLeft=4;spacingRight=4;overflow=hidden;points=[[0,0.5],[1,0.5]];portConstraint=eastwest;rotatable=0;whiteSpace=wrap;html=1;" vertex="1" parent="WZCXuej5-DD6I5j7KRN8-8">
          <mxGeometry y="60" width="140" height="30" as="geometry" />
        </mxCell>
        <mxCell id="WZCXuej5-DD6I5j7KRN8-11" value="Get Base Data" style="text;strokeColor=none;fillColor=none;align=left;verticalAlign=middle;spacingLeft=4;spacingRight=4;overflow=hidden;points=[[0,0.5],[1,0.5]];portConstraint=eastwest;rotatable=0;whiteSpace=wrap;html=1;" vertex="1" parent="WZCXuej5-DD6I5j7KRN8-8">
          <mxGeometry y="90" width="140" height="30" as="geometry" />
        </mxCell>
        <mxCell id="WZCXuej5-DD6I5j7KRN8-12" value="Scrip_Data" style="shape=cylinder3;whiteSpace=wrap;html=1;boundedLbl=1;backgroundOutline=1;size=15;" vertex="1" parent="1">
          <mxGeometry x="590" y="500" width="90" height="90" as="geometry" />
        </mxCell>
        <mxCell id="WZCXuej5-DD6I5j7KRN8-13" style="edgeStyle=orthogonalEdgeStyle;rounded=0;orthogonalLoop=1;jettySize=auto;html=1;startArrow=classic;startFill=1;" edge="1" parent="1" source="WZCXuej5-DD6I5j7KRN8-10" target="WZCXuej5-DD6I5j7KRN8-12">
          <mxGeometry relative="1" as="geometry" />
        </mxCell>
        <mxCell id="WZCXuej5-DD6I5j7KRN8-14" value="Scrip Data Service" style="swimlane;fontStyle=0;childLayout=stackLayout;horizontal=1;startSize=30;horizontalStack=0;resizeParent=1;resizeParentMax=0;resizeLast=0;collapsible=1;marginBottom=0;whiteSpace=wrap;html=1;" vertex="1" parent="1">
          <mxGeometry x="320" y="370" width="140" height="60" as="geometry" />
        </mxCell>
        <mxCell id="WZCXuej5-DD6I5j7KRN8-15" value="Load Scrip Data" style="text;strokeColor=none;fillColor=none;align=left;verticalAlign=middle;spacingLeft=4;spacingRight=4;overflow=hidden;points=[[0,0.5],[1,0.5]];portConstraint=eastwest;rotatable=0;whiteSpace=wrap;html=1;" vertex="1" parent="WZCXuej5-DD6I5j7KRN8-14">
          <mxGeometry y="30" width="140" height="30" as="geometry" />
        </mxCell>
        <mxCell id="WZCXuej5-DD6I5j7KRN8-18" style="edgeStyle=orthogonalEdgeStyle;rounded=0;orthogonalLoop=1;jettySize=auto;html=1;entryX=1;entryY=0.5;entryDx=0;entryDy=0;exitX=1;exitY=0.5;exitDx=0;exitDy=0;startArrow=classic;startFill=1;endArrow=none;endFill=0;" edge="1" parent="1" source="WZCXuej5-DD6I5j7KRN8-4" target="WZCXuej5-DD6I5j7KRN8-15">
          <mxGeometry relative="1" as="geometry" />
        </mxCell>
        <mxCell id="WZCXuej5-DD6I5j7KRN8-65" value="Fetch" style="edgeLabel;html=1;align=center;verticalAlign=middle;resizable=0;points=[];" vertex="1" connectable="0" parent="WZCXuej5-DD6I5j7KRN8-18">
          <mxGeometry x="-0.1489" y="2" relative="1" as="geometry">
            <mxPoint as="offset" />
          </mxGeometry>
        </mxCell>
        <mxCell id="WZCXuej5-DD6I5j7KRN8-20" value="Shoonya" style="ellipse;shape=cloud;whiteSpace=wrap;html=1;" vertex="1" parent="1">
          <mxGeometry x="575" y="226" width="120" height="80" as="geometry" />
        </mxCell>
        <mxCell id="WZCXuej5-DD6I5j7KRN8-21" style="edgeStyle=orthogonalEdgeStyle;rounded=0;orthogonalLoop=1;jettySize=auto;html=1;entryX=0.16;entryY=0.55;entryDx=0;entryDy=0;entryPerimeter=0;startArrow=classic;startFill=1;" edge="1" parent="1" source="WZCXuej5-DD6I5j7KRN8-1" target="WZCXuej5-DD6I5j7KRN8-20">
          <mxGeometry relative="1" as="geometry" />
        </mxCell>
        <mxCell id="WZCXuej5-DD6I5j7KRN8-22" value="" style="endArrow=none;dashed=1;html=1;dashPattern=1 3;strokeWidth=2;rounded=0;" edge="1" parent="1">
          <mxGeometry width="50" height="50" relative="1" as="geometry">
            <mxPoint x="240" y="640" as="sourcePoint" />
            <mxPoint x="240" y="140" as="targetPoint" />
          </mxGeometry>
        </mxCell>
        <mxCell id="WZCXuej5-DD6I5j7KRN8-23" value="&lt;h1&gt;TechnoPunter - Commons&lt;/h1&gt;&lt;p&gt;Common functionalities are pushed here&lt;/p&gt;&lt;p&gt;Ideally all IO should be here&lt;/p&gt;" style="text;html=1;strokeColor=none;fillColor=none;spacing=5;spacingTop=-20;whiteSpace=wrap;overflow=hidden;rounded=0;" vertex="1" parent="1">
          <mxGeometry x="310" y="60" width="340" height="120" as="geometry" />
        </mxCell>
        <mxCell id="WZCXuej5-DD6I5j7KRN8-29" style="edgeStyle=orthogonalEdgeStyle;rounded=0;orthogonalLoop=1;jettySize=auto;html=1;exitX=1;exitY=0.5;exitDx=0;exitDy=0;" edge="1" parent="1" source="WZCXuej5-DD6I5j7KRN8-25" target="WZCXuej5-DD6I5j7KRN8-28">
          <mxGeometry relative="1" as="geometry" />
        </mxCell>
        <mxCell id="WZCXuej5-DD6I5j7KRN8-24" value="Util / Misc" style="swimlane;fontStyle=0;childLayout=stackLayout;horizontal=1;startSize=30;horizontalStack=0;resizeParent=1;resizeParentMax=0;resizeLast=0;collapsible=1;marginBottom=0;whiteSpace=wrap;html=1;" vertex="1" parent="1">
          <mxGeometry x="320" y="750" width="140" height="120" as="geometry" />
        </mxCell>
        <mxCell id="WZCXuej5-DD6I5j7KRN8-25" value="Log Entry" style="text;strokeColor=none;fillColor=none;align=left;verticalAlign=middle;spacingLeft=4;spacingRight=4;overflow=hidden;points=[[0,0.5],[1,0.5]];portConstraint=eastwest;rotatable=0;whiteSpace=wrap;html=1;" vertex="1" parent="WZCXuej5-DD6I5j7KRN8-24">
          <mxGeometry y="30" width="140" height="30" as="geometry" />
        </mxCell>
        <mxCell id="WZCXuej5-DD6I5j7KRN8-26" value="Email Alerts" style="text;strokeColor=none;fillColor=none;align=left;verticalAlign=middle;spacingLeft=4;spacingRight=4;overflow=hidden;points=[[0,0.5],[1,0.5]];portConstraint=eastwest;rotatable=0;whiteSpace=wrap;html=1;" vertex="1" parent="WZCXuej5-DD6I5j7KRN8-24">
          <mxGeometry y="60" width="140" height="30" as="geometry" />
        </mxCell>
        <mxCell id="WZCXuej5-DD6I5j7KRN8-27" value="Item 3" style="text;strokeColor=none;fillColor=none;align=left;verticalAlign=middle;spacingLeft=4;spacingRight=4;overflow=hidden;points=[[0,0.5],[1,0.5]];portConstraint=eastwest;rotatable=0;whiteSpace=wrap;html=1;" vertex="1" parent="WZCXuej5-DD6I5j7KRN8-24">
          <mxGeometry y="90" width="140" height="30" as="geometry" />
        </mxCell>
        <mxCell id="WZCXuej5-DD6I5j7KRN8-28" value="Log Store" style="shape=cylinder3;whiteSpace=wrap;html=1;boundedLbl=1;backgroundOutline=1;size=15;" vertex="1" parent="1">
          <mxGeometry x="590" y="750" width="90" height="90" as="geometry" />
        </mxCell>
        <mxCell id="WZCXuej5-DD6I5j7KRN8-31" value="Database" style="swimlane;fontStyle=0;childLayout=stackLayout;horizontal=1;startSize=30;horizontalStack=0;resizeParent=1;resizeParentMax=0;resizeLast=0;collapsible=1;marginBottom=0;whiteSpace=wrap;html=1;dashed=1;" vertex="1" parent="1">
          <mxGeometry x="850" y="206" width="140" height="120" as="geometry" />
        </mxCell>
        <mxCell id="WZCXuej5-DD6I5j7KRN8-32" value="Query" style="text;strokeColor=none;fillColor=none;align=left;verticalAlign=middle;spacingLeft=4;spacingRight=4;overflow=hidden;points=[[0,0.5],[1,0.5]];portConstraint=eastwest;rotatable=0;whiteSpace=wrap;html=1;" vertex="1" parent="WZCXuej5-DD6I5j7KRN8-31">
          <mxGeometry y="30" width="140" height="30" as="geometry" />
        </mxCell>
        <mxCell id="WZCXuej5-DD6I5j7KRN8-33" value="Insert / Bulk Insert" style="text;strokeColor=none;fillColor=none;align=left;verticalAlign=middle;spacingLeft=4;spacingRight=4;overflow=hidden;points=[[0,0.5],[1,0.5]];portConstraint=eastwest;rotatable=0;whiteSpace=wrap;html=1;" vertex="1" parent="WZCXuej5-DD6I5j7KRN8-31">
          <mxGeometry y="60" width="140" height="30" as="geometry" />
        </mxCell>
        <mxCell id="WZCXuej5-DD6I5j7KRN8-34" value="Delete" style="text;strokeColor=none;fillColor=none;align=left;verticalAlign=middle;spacingLeft=4;spacingRight=4;overflow=hidden;points=[[0,0.5],[1,0.5]];portConstraint=eastwest;rotatable=0;whiteSpace=wrap;html=1;" vertex="1" parent="WZCXuej5-DD6I5j7KRN8-31">
          <mxGeometry y="90" width="140" height="30" as="geometry" />
        </mxCell>
        <mxCell id="WZCXuej5-DD6I5j7KRN8-40" value="" style="edgeStyle=orthogonalEdgeStyle;rounded=0;orthogonalLoop=1;jettySize=auto;html=1;" edge="1" parent="1" source="WZCXuej5-DD6I5j7KRN8-35" target="WZCXuej5-DD6I5j7KRN8-39">
          <mxGeometry relative="1" as="geometry" />
        </mxCell>
        <mxCell id="WZCXuej5-DD6I5j7KRN8-35" value="TV Feed" style="swimlane;fontStyle=0;childLayout=stackLayout;horizontal=1;startSize=30;horizontalStack=0;resizeParent=1;resizeParentMax=0;resizeLast=0;collapsible=1;marginBottom=0;whiteSpace=wrap;html=1;dashed=1;" vertex="1" parent="1">
          <mxGeometry x="1030" y="206" width="140" height="60" as="geometry" />
        </mxCell>
        <mxCell id="WZCXuej5-DD6I5j7KRN8-36" value="Get TV Data" style="text;strokeColor=none;fillColor=none;align=left;verticalAlign=middle;spacingLeft=4;spacingRight=4;overflow=hidden;points=[[0,0.5],[1,0.5]];portConstraint=eastwest;rotatable=0;whiteSpace=wrap;html=1;" vertex="1" parent="WZCXuej5-DD6I5j7KRN8-35">
          <mxGeometry y="30" width="140" height="30" as="geometry" />
        </mxCell>
        <mxCell id="WZCXuej5-DD6I5j7KRN8-39" value="Shoonya" style="ellipse;shape=cloud;whiteSpace=wrap;html=1;dashed=1;" vertex="1" parent="1">
          <mxGeometry x="1040" y="60" width="120" height="80" as="geometry" />
        </mxCell>
        <mxCell id="WZCXuej5-DD6I5j7KRN8-46" value="" style="edgeStyle=orthogonalEdgeStyle;rounded=0;orthogonalLoop=1;jettySize=auto;html=1;" edge="1" parent="1" source="WZCXuej5-DD6I5j7KRN8-41" target="WZCXuej5-DD6I5j7KRN8-45">
          <mxGeometry relative="1" as="geometry" />
        </mxCell>
        <mxCell id="WZCXuej5-DD6I5j7KRN8-41" value="File Reader" style="swimlane;fontStyle=0;childLayout=stackLayout;horizontal=1;startSize=30;horizontalStack=0;resizeParent=1;resizeParentMax=0;resizeLast=0;collapsible=1;marginBottom=0;whiteSpace=wrap;html=1;dashed=1;" vertex="1" parent="1">
          <mxGeometry x="1220" y="206" width="140" height="120" as="geometry" />
        </mxCell>
        <mxCell id="WZCXuej5-DD6I5j7KRN8-42" value="Get Base Data" style="text;strokeColor=none;fillColor=none;align=left;verticalAlign=middle;spacingLeft=4;spacingRight=4;overflow=hidden;points=[[0,0.5],[1,0.5]];portConstraint=eastwest;rotatable=0;whiteSpace=wrap;html=1;" vertex="1" parent="WZCXuej5-DD6I5j7KRN8-41">
          <mxGeometry y="30" width="140" height="30" as="geometry" />
        </mxCell>
        <mxCell id="WZCXuej5-DD6I5j7KRN8-43" value="Get Tick Data" style="text;strokeColor=none;fillColor=none;align=left;verticalAlign=middle;spacingLeft=4;spacingRight=4;overflow=hidden;points=[[0,0.5],[1,0.5]];portConstraint=eastwest;rotatable=0;whiteSpace=wrap;html=1;" vertex="1" parent="WZCXuej5-DD6I5j7KRN8-41">
          <mxGeometry y="60" width="140" height="30" as="geometry" />
        </mxCell>
        <mxCell id="WZCXuej5-DD6I5j7KRN8-44" value="Delete" style="text;strokeColor=none;fillColor=none;align=left;verticalAlign=middle;spacingLeft=4;spacingRight=4;overflow=hidden;points=[[0,0.5],[1,0.5]];portConstraint=eastwest;rotatable=0;whiteSpace=wrap;html=1;" vertex="1" parent="WZCXuej5-DD6I5j7KRN8-41">
          <mxGeometry y="90" width="140" height="30" as="geometry" />
        </mxCell>
        <mxCell id="WZCXuej5-DD6I5j7KRN8-45" value="TV Data&lt;br&gt;(Base &amp;amp; Tick)" style="shape=document;whiteSpace=wrap;html=1;boundedLbl=1;" vertex="1" parent="1">
          <mxGeometry x="1230" y="70" width="120" height="80" as="geometry" />
        </mxCell>
        <mxCell id="WZCXuej5-DD6I5j7KRN8-47" style="edgeStyle=orthogonalEdgeStyle;rounded=0;orthogonalLoop=1;jettySize=auto;html=1;entryX=0;entryY=0.5;entryDx=0;entryDy=0;" edge="1" parent="1" source="WZCXuej5-DD6I5j7KRN8-36" target="WZCXuej5-DD6I5j7KRN8-45">
          <mxGeometry relative="1" as="geometry" />
        </mxCell>
        <mxCell id="WZCXuej5-DD6I5j7KRN8-53" style="edgeStyle=orthogonalEdgeStyle;rounded=0;orthogonalLoop=1;jettySize=auto;html=1;startArrow=classic;startFill=1;endArrow=none;endFill=0;" edge="1" parent="1" source="WZCXuej5-DD6I5j7KRN8-48" target="WZCXuej5-DD6I5j7KRN8-12">
          <mxGeometry relative="1" as="geometry" />
        </mxCell>
        <mxCell id="WZCXuej5-DD6I5j7KRN8-48" value="FastBT (Backtest)" style="swimlane;fontStyle=0;childLayout=stackLayout;horizontal=1;startSize=30;horizontalStack=0;resizeParent=1;resizeParentMax=0;resizeLast=0;collapsible=1;marginBottom=0;whiteSpace=wrap;html=1;" vertex="1" parent="1">
          <mxGeometry x="320" y="630" width="140" height="90" as="geometry" />
        </mxCell>
        <mxCell id="WZCXuej5-DD6I5j7KRN8-49" value="Run Accuracy" style="text;strokeColor=none;fillColor=none;align=left;verticalAlign=middle;spacingLeft=4;spacingRight=4;overflow=hidden;points=[[0,0.5],[1,0.5]];portConstraint=eastwest;rotatable=0;whiteSpace=wrap;html=1;" vertex="1" parent="WZCXuej5-DD6I5j7KRN8-48">
          <mxGeometry y="30" width="140" height="30" as="geometry" />
        </mxCell>
        <mxCell id="WZCXuej5-DD6I5j7KRN8-50" value="Run COB Accuracy" style="text;strokeColor=none;fillColor=none;align=left;verticalAlign=middle;spacingLeft=4;spacingRight=4;overflow=hidden;points=[[0,0.5],[1,0.5]];portConstraint=eastwest;rotatable=0;whiteSpace=wrap;html=1;" vertex="1" parent="WZCXuej5-DD6I5j7KRN8-48">
          <mxGeometry y="60" width="140" height="30" as="geometry" />
        </mxCell>
        <mxCell id="WZCXuej5-DD6I5j7KRN8-54" value="Model Training" style="swimlane;fontStyle=0;childLayout=stackLayout;horizontal=1;startSize=30;horizontalStack=0;resizeParent=1;resizeParentMax=0;resizeLast=0;collapsible=1;marginBottom=0;whiteSpace=wrap;html=1;" vertex="1" parent="1">
          <mxGeometry x="-150" y="210" width="140" height="120" as="geometry" />
        </mxCell>
        <mxCell id="WZCXuej5-DD6I5j7KRN8-55" value="TV Download" style="text;strokeColor=none;fillColor=none;align=left;verticalAlign=middle;spacingLeft=4;spacingRight=4;overflow=hidden;points=[[0,0.5],[1,0.5]];portConstraint=eastwest;rotatable=0;whiteSpace=wrap;html=1;" vertex="1" parent="WZCXuej5-DD6I5j7KRN8-54">
          <mxGeometry y="30" width="140" height="30" as="geometry" />
        </mxCell>
        <mxCell id="WZCXuej5-DD6I5j7KRN8-56" value="Analyze" style="text;strokeColor=none;fillColor=none;align=left;verticalAlign=middle;spacingLeft=4;spacingRight=4;overflow=hidden;points=[[0,0.5],[1,0.5]];portConstraint=eastwest;rotatable=0;whiteSpace=wrap;html=1;" vertex="1" parent="WZCXuej5-DD6I5j7KRN8-54">
          <mxGeometry y="60" width="140" height="30" as="geometry" />
        </mxCell>
        <mxCell id="WZCXuej5-DD6I5j7KRN8-57" value="Predict" style="text;strokeColor=none;fillColor=none;align=left;verticalAlign=middle;spacingLeft=4;spacingRight=4;overflow=hidden;points=[[0,0.5],[1,0.5]];portConstraint=eastwest;rotatable=0;whiteSpace=wrap;html=1;" vertex="1" parent="WZCXuej5-DD6I5j7KRN8-54">
          <mxGeometry y="90" width="140" height="30" as="geometry" />
        </mxCell>
        <mxCell id="WZCXuej5-DD6I5j7KRN8-58" style="edgeStyle=orthogonalEdgeStyle;rounded=0;orthogonalLoop=1;jettySize=auto;html=1;" edge="1" parent="1" source="WZCXuej5-DD6I5j7KRN8-55" target="WZCXuej5-DD6I5j7KRN8-10">
          <mxGeometry relative="1" as="geometry" />
        </mxCell>
        <mxCell id="WZCXuej5-DD6I5j7KRN8-63" value="Fetch" style="edgeLabel;html=1;align=center;verticalAlign=middle;resizable=0;points=[];" vertex="1" connectable="0" parent="WZCXuej5-DD6I5j7KRN8-58">
          <mxGeometry x="0.7429" y="-4" relative="1" as="geometry">
            <mxPoint y="-4" as="offset" />
          </mxGeometry>
        </mxCell>
        <mxCell id="WZCXuej5-DD6I5j7KRN8-59" style="edgeStyle=orthogonalEdgeStyle;rounded=0;orthogonalLoop=1;jettySize=auto;html=1;entryX=0;entryY=0.5;entryDx=0;entryDy=0;" edge="1" parent="1" source="WZCXuej5-DD6I5j7KRN8-55" target="WZCXuej5-DD6I5j7KRN8-11">
          <mxGeometry relative="1" as="geometry" />
        </mxCell>
        <mxCell id="WZCXuej5-DD6I5j7KRN8-61" style="edgeStyle=orthogonalEdgeStyle;rounded=0;orthogonalLoop=1;jettySize=auto;html=1;" edge="1" parent="1" source="WZCXuej5-DD6I5j7KRN8-55" target="WZCXuej5-DD6I5j7KRN8-15">
          <mxGeometry relative="1" as="geometry" />
        </mxCell>
        <mxCell id="WZCXuej5-DD6I5j7KRN8-62" value="Trigger Download&lt;br&gt;&amp;amp; Save" style="edgeLabel;html=1;align=center;verticalAlign=middle;resizable=0;points=[];" vertex="1" connectable="0" parent="WZCXuej5-DD6I5j7KRN8-61">
          <mxGeometry x="0.7163" y="2" relative="1" as="geometry">
            <mxPoint x="-9" y="2" as="offset" />
          </mxGeometry>
        </mxCell>
        <mxCell id="WZCXuej5-DD6I5j7KRN8-64" style="edgeStyle=orthogonalEdgeStyle;rounded=0;orthogonalLoop=1;jettySize=auto;html=1;exitX=1;exitY=0.5;exitDx=0;exitDy=0;" edge="1" parent="1" source="WZCXuej5-DD6I5j7KRN8-15" target="WZCXuej5-DD6I5j7KRN8-9">
          <mxGeometry relative="1" as="geometry" />
        </mxCell>
        <mxCell id="WZCXuej5-DD6I5j7KRN8-66" value="Store" style="edgeLabel;html=1;align=center;verticalAlign=middle;resizable=0;points=[];" vertex="1" connectable="0" parent="WZCXuej5-DD6I5j7KRN8-64">
          <mxGeometry x="0.1" y="2" relative="1" as="geometry">
            <mxPoint x="-2" y="-12" as="offset" />
          </mxGeometry>
        </mxCell>
        <mxCell id="WZCXuej5-DD6I5j7KRN8-67" value="BT Trades&lt;br&gt;Accuracy" style="shape=document;whiteSpace=wrap;html=1;boundedLbl=1;" vertex="1" parent="1">
          <mxGeometry x="-340" y="200" width="120" height="80" as="geometry" />
        </mxCell>
        <mxCell id="WZCXuej5-DD6I5j7KRN8-87" style="edgeStyle=orthogonalEdgeStyle;rounded=0;orthogonalLoop=1;jettySize=auto;html=1;entryX=0;entryY=0.5;entryDx=0;entryDy=0;" edge="1" parent="1" source="WZCXuej5-DD6I5j7KRN8-68" target="WZCXuej5-DD6I5j7KRN8-73">
          <mxGeometry relative="1" as="geometry" />
        </mxCell>
        <mxCell id="WZCXuej5-DD6I5j7KRN8-68" value="Entries" style="shape=document;whiteSpace=wrap;html=1;boundedLbl=1;" vertex="1" parent="1">
          <mxGeometry x="-340" y="320" width="120" height="80" as="geometry" />
        </mxCell>
        <mxCell id="WZCXuej5-DD6I5j7KRN8-69" style="edgeStyle=orthogonalEdgeStyle;rounded=0;orthogonalLoop=1;jettySize=auto;html=1;" edge="1" parent="1" source="WZCXuej5-DD6I5j7KRN8-57" target="WZCXuej5-DD6I5j7KRN8-68">
          <mxGeometry relative="1" as="geometry" />
        </mxCell>
        <mxCell id="WZCXuej5-DD6I5j7KRN8-70" style="edgeStyle=orthogonalEdgeStyle;rounded=0;orthogonalLoop=1;jettySize=auto;html=1;entryX=1;entryY=0.5;entryDx=0;entryDy=0;" edge="1" parent="1" source="WZCXuej5-DD6I5j7KRN8-56" target="WZCXuej5-DD6I5j7KRN8-67">
          <mxGeometry relative="1" as="geometry" />
        </mxCell>
        <mxCell id="WZCXuej5-DD6I5j7KRN8-71" style="edgeStyle=orthogonalEdgeStyle;rounded=0;orthogonalLoop=1;jettySize=auto;html=1;entryX=0;entryY=0.5;entryDx=0;entryDy=0;" edge="1" parent="1" source="WZCXuej5-DD6I5j7KRN8-56" target="WZCXuej5-DD6I5j7KRN8-49">
          <mxGeometry relative="1" as="geometry">
            <Array as="points">
              <mxPoint x="120" y="285" />
              <mxPoint x="120" y="675" />
            </Array>
          </mxGeometry>
        </mxCell>
        <mxCell id="WZCXuej5-DD6I5j7KRN8-72" value="Engine" style="swimlane;fontStyle=0;childLayout=stackLayout;horizontal=1;startSize=30;horizontalStack=0;resizeParent=1;resizeParentMax=0;resizeLast=0;collapsible=1;marginBottom=0;whiteSpace=wrap;html=1;" vertex="1" parent="1">
          <mxGeometry x="-150" y="540" width="140" height="60" as="geometry" />
        </mxCell>
        <mxCell id="WZCXuej5-DD6I5j7KRN8-73" value="Execute Orders" style="text;strokeColor=none;fillColor=none;align=left;verticalAlign=middle;spacingLeft=4;spacingRight=4;overflow=hidden;points=[[0,0.5],[1,0.5]];portConstraint=eastwest;rotatable=0;whiteSpace=wrap;html=1;" vertex="1" parent="WZCXuej5-DD6I5j7KRN8-72">
          <mxGeometry y="30" width="140" height="30" as="geometry" />
        </mxCell>
        <mxCell id="WZCXuej5-DD6I5j7KRN8-81" value="Close of Business" style="swimlane;fontStyle=0;childLayout=stackLayout;horizontal=1;startSize=30;horizontalStack=0;resizeParent=1;resizeParentMax=0;resizeLast=0;collapsible=1;marginBottom=0;whiteSpace=wrap;html=1;" vertex="1" parent="1">
          <mxGeometry x="-150" y="630" width="140" height="90" as="geometry" />
        </mxCell>
        <mxCell id="WZCXuej5-DD6I5j7KRN8-82" value="Broker Trade Logging" style="text;strokeColor=none;fillColor=none;align=left;verticalAlign=middle;spacingLeft=4;spacingRight=4;overflow=hidden;points=[[0,0.5],[1,0.5]];portConstraint=eastwest;rotatable=0;whiteSpace=wrap;html=1;" vertex="1" parent="WZCXuej5-DD6I5j7KRN8-81">
          <mxGeometry y="30" width="140" height="30" as="geometry" />
        </mxCell>
        <mxCell id="WZCXuej5-DD6I5j7KRN8-83" value="COB" style="text;strokeColor=none;fillColor=none;align=left;verticalAlign=middle;spacingLeft=4;spacingRight=4;overflow=hidden;points=[[0,0.5],[1,0.5]];portConstraint=eastwest;rotatable=0;whiteSpace=wrap;html=1;" vertex="1" parent="WZCXuej5-DD6I5j7KRN8-81">
          <mxGeometry y="60" width="140" height="30" as="geometry" />
        </mxCell>
        <mxCell id="WZCXuej5-DD6I5j7KRN8-84" style="edgeStyle=orthogonalEdgeStyle;rounded=0;orthogonalLoop=1;jettySize=auto;html=1;" edge="1" parent="1" source="WZCXuej5-DD6I5j7KRN8-83" target="WZCXuej5-DD6I5j7KRN8-50">
          <mxGeometry relative="1" as="geometry" />
        </mxCell>
        <mxCell id="WZCXuej5-DD6I5j7KRN8-85" style="edgeStyle=orthogonalEdgeStyle;rounded=0;orthogonalLoop=1;jettySize=auto;html=1;entryX=0;entryY=0.5;entryDx=0;entryDy=0;exitX=1;exitY=0.5;exitDx=0;exitDy=0;" edge="1" parent="1" source="WZCXuej5-DD6I5j7KRN8-82" target="WZCXuej5-DD6I5j7KRN8-4">
          <mxGeometry relative="1" as="geometry">
            <Array as="points">
              <mxPoint x="80" y="675" />
              <mxPoint x="80" y="315" />
            </Array>
          </mxGeometry>
        </mxCell>
        <mxCell id="WZCXuej5-DD6I5j7KRN8-86" value="Get Order Book" style="edgeLabel;html=1;align=center;verticalAlign=middle;resizable=0;points=[];" vertex="1" connectable="0" parent="WZCXuej5-DD6I5j7KRN8-85">
          <mxGeometry x="-0.553" y="-2" relative="1" as="geometry">
            <mxPoint x="-12" as="offset" />
          </mxGeometry>
        </mxCell>
        <mxCell id="WZCXuej5-DD6I5j7KRN8-88" value="" style="endArrow=none;dashed=1;html=1;rounded=0;" edge="1" parent="1">
          <mxGeometry width="50" height="50" relative="1" as="geometry">
            <mxPoint x="-370" y="480" as="sourcePoint" />
            <mxPoint y="480" as="targetPoint" />
          </mxGeometry>
        </mxCell>
        <mxCell id="WZCXuej5-DD6I5j7KRN8-89" style="edgeStyle=orthogonalEdgeStyle;rounded=0;orthogonalLoop=1;jettySize=auto;html=1;entryX=0.5;entryY=0;entryDx=0;entryDy=0;" edge="1" parent="1" source="WZCXuej5-DD6I5j7KRN8-73" target="WZCXuej5-DD6I5j7KRN8-1">
          <mxGeometry relative="1" as="geometry">
            <Array as="points">
              <mxPoint x="50" y="585" />
              <mxPoint x="50" y="190" />
              <mxPoint x="389" y="190" />
            </Array>
          </mxGeometry>
        </mxCell>
      </root>
    </mxGraphModel>
  </diagram>
</mxfile>
